<svg width="25" height="25" viewBox="0 0 25 25" fill="none" xmlns="http://www.w3.org/2000/svg">
<g id="mdi:email">
<path id="Vector" d="M20.8334 8.33333L12.5 13.5417L4.16671 8.33333V6.25L12.5 11.4583L20.8334 6.25M20.8334 4.16666H4.16671C3.01046 4.16666 2.08337 5.09375 2.08337 6.25V18.75C2.08337 19.3025 2.30287 19.8324 2.69357 20.2231C3.08427 20.6138 3.61417 20.8333 4.16671 20.8333H20.8334C21.3859 20.8333 21.9158 20.6138 22.3065 20.2231C22.6972 19.8324 22.9167 19.3025 22.9167 18.75V6.25C22.9167 5.69746 22.6972 5.16756 22.3065 4.77686C21.9158 4.38616 21.3859 4.16666 20.8334 4.16666Z" fill="#fb791b"/>
</g>
</svg>
